<?xml version="1.0" standalone="no"?>
<!DOCTYPE svg PUBLIC "-//W3C//DTD SVG 20010904//EN"
 "http://www.w3.org/TR/2001/REC-SVG-20010904/DTD/svg10.dtd">
<svg version="1.0" xmlns="http://www.w3.org/2000/svg"
 width="460.000000pt" height="460.000000pt" viewBox="0 0 460.000000 460.000000"
 preserveAspectRatio="xMidYMid meet">
<metadata>
Created by potrace 1.14, written by Peter Selinger 2001-2017
</metadata>
<g transform="translate(0.000000,460.000000) scale(0.100000,-0.100000)"
fill="#000000" stroke="none">
<path d="M0 2300 l0 -2300 1511 0 1511 0 -5 30 c-4 17 -2 30 3 30 6 0 10 -13
10 -30 l0 -30 785 0 785 0 0 2300 0 2300 -2300 0 -2300 0 0 -2300z m2375 2220
c3 -5 28 -10 56 -10 84 0 196 -80 201 -144 1 -14 6 -26 10 -26 5 0 3 -9 -4
-20 -10 -16 -10 -26 1 -52 42 -101 88 -267 96 -348 4 -35 8 -68 11 -72 2 -4
21 2 42 13 l37 20 47 -21 c54 -24 118 -80 118 -104 0 -9 5 -16 11 -16 6 0 9
-6 6 -12 -2 -7 3 -20 12 -28 21 -19 28 -65 9 -55 -10 6 -11 5 0 -6 15 -16 16
-33 1 -23 -8 4 -9 -1 -3 -17 8 -25 7 -76 -2 -90 -3 -5 -18 -9 -33 -9 -34 0
-41 -18 -32 -81 3 -24 4 -80 1 -124 l-5 -80 -8 55 c-5 30 -9 96 -10 145 -2 73
-5 90 -17 90 -13 0 -15 -23 -15 -147 0 -80 -3 -150 -7 -154 -5 -4 -8 20 -8 54
0 33 -3 68 -7 78 -6 16 -7 16 -14 -2 -5 -11 -8 9 -8 51 -1 41 4 76 10 82 22
22 3 40 -44 40 -35 1 -50 -4 -67 -22 -30 -32 -51 -113 -60 -235 -5 -58 -15
-197 -24 -310 -25 -326 -52 -649 -73 -879 -5 -51 -3 -66 9 -75 9 -6 17 -19 19
-28 4 -15 12 -13 67 15 51 26 65 29 72 18 7 -12 13 -11 36 3 25 17 28 17 36 1
9 -15 11 -15 28 0 15 13 23 14 39 5 23 -12 45 -5 36 11 -4 5 -1 9 4 9 6 0 11
-4 11 -10 0 -16 27 -11 34 6 5 13 9 14 22 4 11 -10 18 -10 26 -2 8 8 15 9 25
1 10 -9 13 -8 13 5 0 13 6 15 28 10 17 -4 23 -2 14 4 -9 6 4 13 43 22 31 7 58
17 61 22 3 4 11 8 17 8 8 0 8 -3 -1 -9 -11 -7 -11 -9 2 -14 8 -3 18 -3 20 2 6
9 99 -2 136 -17 34 -14 122 -92 117 -105 -2 -6 7 -21 21 -34 24 -22 27 -60 4
-55 -15 3 13 -71 29 -76 6 -3 6 -8 0 -16 -6 -7 -12 -21 -14 -32 -1 -11 -13
-38 -25 -62 -19 -36 -22 -59 -23 -155 0 -72 -3 -105 -9 -92 -5 11 -9 66 -9
123 -1 56 -3 102 -5 102 -3 0 -16 -10 -29 -22 -20 -19 -26 -37 -31 -100 -4
-43 -11 -78 -16 -78 -4 0 -11 -15 -15 -32 -7 -28 -9 -21 -16 47 -4 45 -4 96 1
115 l8 35 1 -39 c2 -60 12 -36 17 38 4 72 -7 85 -45 47 -11 -11 -22 -17 -25
-14 -3 4 -6 0 -6 -8 0 -11 -2 -12 -9 -1 -14 23 -21 -77 -9 -151 5 -38 7 -71 4
-74 -3 -4 -6 1 -6 10 0 23 -20 22 -21 0 0 -10 -6 0 -13 22 l-13 40 -7 -53
c-13 -90 -24 -48 -22 93 0 74 -1 135 -4 135 -13 0 -30 -25 -30 -44 -1 -17 -5
-14 -19 13 -15 29 -19 31 -25 15 -5 -14 -9 -15 -15 -5 -6 9 -11 10 -15 2 -4
-6 -23 -11 -41 -11 -28 0 -36 -4 -41 -25 -3 -13 -4 -30 -2 -37 3 -7 2 -25 -3
-40 -6 -21 -4 -26 7 -21 11 4 14 -5 14 -37 0 -25 4 -39 10 -35 6 4 10 -19 9
-62 -1 -37 -4 -59 -7 -48 l-5 20 -7 -20 c-5 -12 -7 5 -5 40 l4 60 -13 -60 c-8
-33 -15 -62 -16 -65 -5 -15 -19 42 -20 85 -3 88 -18 109 -21 30 -3 -69 -3 -69
-6 -15 -2 30 -8 59 -12 63 -5 5 -7 28 -5 50 4 34 3 38 -5 20 -6 -13 -13 -23
-17 -23 -8 0 1 128 11 152 5 13 0 17 -27 20 -18 2 -33 9 -33 16 0 19 -20 15
-23 -5 -2 -10 -12 -38 -23 -62 -12 -24 -24 -63 -29 -85 -4 -23 -9 -32 -10 -21
-1 11 -4 36 -6 55 -6 47 3 96 22 115 8 8 12 19 9 25 -10 16 -52 12 -70 -7 -12
-12 -19 -13 -24 -4 -8 13 -41 4 -41 -11 0 -6 -7 -8 -15 -4 -32 12 -60 -14 -77
-72 -24 -82 -53 -323 -42 -358 8 -28 8 -28 15 16 6 37 7 31 7 -35 -1 -158 2
-201 12 -185 5 8 10 34 10 58 0 23 5 42 10 42 6 0 10 -34 10 -82 0 -57 -3 -78
-10 -68 -9 13 -10 13 -10 0 0 -13 -1 -13 -10 0 -6 10 -10 -10 -13 -65 -3 -76
-3 -75 -6 30 -2 70 -6 97 -10 75 -12 -65 -22 -2 -22 132 0 75 -4 128 -9 128
-6 0 -10 -15 -11 -32 l-1 -33 -11 28 c-11 28 -32 36 -40 15 -3 -10 -7 -10 -20
1 -11 9 -17 10 -17 2 0 -6 -7 -11 -15 -11 -11 0 -15 -12 -16 -47 -1 -27 -5
-59 -9 -73 -6 -19 -8 -9 -9 38 -1 34 -5 62 -11 62 -6 0 -10 -27 -10 -61 0 -34
-4 -58 -9 -54 -14 8 -24 -33 -15 -63 l7 -27 7 30 c6 24 8 19 8 -25 0 -37 -2
-47 -7 -30 -13 45 -22 4 -17 -77 3 -43 1 -96 -3 -118 l-9 -40 -2 40 c-1 22 -2
42 -2 45 0 3 -4 64 -10 135 -5 72 -9 148 -8 169 0 22 -4 42 -10 46 -8 5 -8 25
-2 66 9 60 14 328 5 286 -2 -12 -8 -20 -13 -17 -5 3 -15 -23 -22 -57 l-12 -63
-7 38 c-3 21 -2 59 3 85 9 50 -1 72 -22 47 -7 -8 -24 -15 -39 -15 -32 0 -71
-25 -71 -47 0 -9 -6 -13 -15 -9 -9 3 -15 0 -15 -10 0 -8 -8 -18 -17 -21 -26
-10 -31 -20 -38 -87 -4 -34 -13 -80 -21 -104 -15 -44 -19 -111 -7 -98 4 4 10
28 14 54 6 43 6 41 8 -26 1 -60 -3 -79 -20 -103 -11 -16 -17 -29 -12 -29 4 0
3 -4 -3 -8 -14 -8 -64 -96 -64 -111 0 -6 -14 -31 -32 -55 l-31 -45 1 -243 c0
-164 -3 -233 -9 -213 -5 17 -7 50 -3 74 4 28 2 46 -6 51 -12 8 -15 176 -4 236
5 27 3 34 -10 34 -9 0 -19 -7 -22 -15 -4 -8 -12 -15 -19 -15 -20 0 -55 -49
-55 -76 0 -12 -7 -30 -16 -38 -8 -9 -18 -31 -21 -50 -3 -21 -10 -33 -17 -30
-7 3 -18 -8 -25 -23 -7 -15 -19 -35 -27 -43 -48 -50 -54 -63 -55 -129 l-1 -66
-13 55 c-11 49 -13 51 -14 20 -1 -57 11 -140 20 -134 5 3 9 -22 9 -55 0 -34
-4 -61 -10 -61 -5 0 -11 -17 -11 -37 -2 -34 -2 -35 -6 -8 -7 55 -14 62 -27 30
l-13 -30 -8 45 c-5 25 -9 98 -9 162 1 110 -4 135 -22 107 -4 -7 -21 -9 -40 -6
-27 5 -36 2 -44 -14 -6 -11 -15 -17 -20 -14 -15 9 -23 -15 -25 -79 -1 -33 -3
-86 -4 -116 -2 -39 -5 -49 -10 -35 -7 15 -10 6 -16 -37 -4 -32 -11 -58 -16
-58 -4 0 -9 -15 -11 -32 -2 -18 -7 39 -11 127 -5 88 -13 230 -19 315 -5 85
-11 232 -13 325 -1 94 -6 200 -10 238 -4 45 -3 67 4 67 11 0 15 -12 11 -44 -1
-11 3 -15 9 -12 6 4 11 32 11 62 0 31 4 54 11 54 7 0 8 -37 5 -112 -5 -109 -5
-111 8 -63 8 28 15 66 15 85 1 19 8 46 16 60 13 24 14 21 15 -42 0 -38 4 -68
9 -68 14 0 32 26 23 35 -4 5 -2 5 5 1 15 -8 27 10 19 31 -6 14 -8 14 -21 -3
-14 -18 -14 -18 -15 7 0 15 7 40 15 55 14 27 15 28 15 6 0 -13 4 -20 10 -17 6
4 10 -10 10 -34 0 -23 5 -41 10 -41 6 0 10 26 10 59 0 35 5 63 12 67 8 5 10
-8 5 -48 -3 -30 -2 -60 3 -67 11 -19 16 -3 18 56 1 28 7 64 14 80 l12 28 4
-38 c4 -43 22 -41 22 3 0 27 15 48 26 37 9 -9 -8 -97 -17 -92 -7 5 -14 -23
-22 -84 -1 -8 -24 -26 -52 -41 -54 -28 -85 -74 -85 -122 0 -28 13 -37 25 -18
3 6 15 10 26 10 16 0 19 8 20 53 1 28 3 44 6 34 2 -9 9 -15 14 -12 5 4 9 -3 9
-14 0 -12 -4 -21 -10 -21 -5 0 -10 -7 -10 -15 0 -22 36 -13 71 18 17 15 36 27
43 27 6 0 22 7 34 16 12 8 22 13 22 10 0 -3 20 6 45 19 25 14 48 25 52 25 5 0
7 34 5 74 -1 55 2 77 13 86 13 10 15 9 15 -9 0 -12 -4 -30 -9 -40 -6 -11 -6
-33 1 -60 10 -38 12 -40 23 -24 10 14 11 31 4 63 -11 59 -11 170 0 170 10 0
21 -83 21 -162 0 -37 4 -58 11 -58 9 0 10 32 5 118 -6 108 4 199 17 162 10
-28 18 -138 10 -143 -4 -3 -6 -33 -5 -66 3 -50 6 -60 17 -51 14 12 14 182 1
251 -5 23 -4 39 3 43 6 4 11 24 11 44 -1 33 -2 35 -14 20 -7 -10 -21 -18 -30
-18 -9 0 -16 -5 -16 -10 0 -6 -10 -14 -22 -19 -19 -7 -26 -23 -41 -97 -11 -49
-22 -127 -26 -174 -4 -47 -9 -80 -10 -75 -7 32 -9 256 -2 288 5 21 5 39 0 43
-15 9 -46 -14 -70 -52 -18 -31 -24 -34 -33 -22 -8 11 -12 -20 -14 -121 -1 -74
-7 -140 -12 -145 -7 -7 -10 5 -11 34 0 35 -2 40 -9 25 -8 -19 -9 -19 -9 3 -1
12 4 22 9 22 6 0 10 37 10 90 0 79 -2 90 -17 90 -10 0 -26 -7 -36 -15 -11 -7
-25 -11 -33 -8 -7 2 -25 -7 -39 -21 -14 -14 -30 -26 -35 -26 -6 0 -10 -7 -10
-15 0 -23 -18 -18 -26 7 -6 21 -7 21 -20 3 -8 -10 -14 -15 -14 -11 0 5 -7 3
-15 -4 -8 -7 -15 -9 -15 -4 0 4 -5 3 -12 -4 -7 -7 -20 -12 -29 -12 -9 0 -22
-7 -29 -15 -7 -9 -18 -14 -25 -12 -6 3 -22 -10 -34 -29 -13 -19 -29 -34 -36
-34 -7 0 -16 -8 -20 -17 -7 -17 -8 -16 -15 2 -5 14 -10 -2 -15 -51 -4 -47 -3
-79 4 -92 14 -26 14 -35 1 -27 -6 4 -10 -6 -10 -22 0 -15 -5 -35 -10 -43 -7
-11 -10 -5 -11 25 0 37 -17 96 -18 68 -1 -18 -21 -16 -21 1 0 8 6 21 12 28 26
28 38 59 37 95 -1 23 -3 30 -7 18 -5 -19 -5 -19 -12 -1 -6 19 -7 19 -27 -1
-12 -12 -24 -18 -28 -15 -3 4 -10 0 -15 -8 -8 -12 -10 -13 -10 -1 0 29 -40
-22 -41 -53 -1 -24 -3 -26 -6 -8 -7 38 -21 24 -26 -26 -2 -26 -10 -76 -18
-112 -11 -53 -14 -60 -18 -35 -4 30 -4 30 -11 5 -6 -19 -8 -13 -9 27 -1 28 -4
58 -7 67 -8 21 -24 10 -24 -17 0 -18 2 -19 10 -7 7 11 10 0 10 -37 0 -28 -3
-54 -8 -57 -4 -2 -6 14 -5 37 l3 42 -14 -29 -13 -29 -4 29 c-11 74 11 177 24
112 4 -20 4 -20 6 4 0 15 5 30 11 33 5 3 15 15 20 26 13 23 -2 26 -23 5 -10
-11 -17 -12 -25 -4 -8 8 -15 8 -26 -1 -12 -10 -15 -9 -18 6 -2 14 -9 9 -27
-20 -16 -27 -22 -47 -18 -67 8 -38 -3 -130 -15 -130 -6 0 -9 26 -8 58 5 135
-4 156 -31 70 -16 -49 -16 -53 0 -65 15 -12 15 -13 -1 -7 -14 5 -18 0 -18 -22
0 -17 -4 -24 -9 -19 -10 10 -25 219 -25 353 -1 64 -2 71 -14 55 -13 -16 -13
-16 -7 7 9 29 43 80 54 80 4 0 11 -3 15 -7 4 -4 26 -13 49 -20 39 -12 43 -11
62 10 11 13 40 32 65 42 25 10 79 38 121 62 42 24 85 43 95 43 11 0 28 6 39
14 30 20 128 54 143 49 14 -6 17 33 2 42 -21 13 -10 52 22 75 18 13 37 29 41
37 4 7 12 13 17 13 5 0 32 14 60 31 27 17 55 27 61 23 8 -4 9 -3 5 4 -4 7 -1
12 7 12 8 0 20 6 26 13 6 8 41 27 78 42 38 16 78 40 90 54 22 25 23 31 17 181
-6 190 -12 435 -14 555 0 63 -3 85 -10 75 -6 -8 -7 -34 -4 -57 6 -41 -3 -90
-14 -79 -3 4 -5 30 -5 59 1 28 -1 42 -4 30 -7 -35 -23 -27 -23 11 0 19 -4 38
-10 41 -6 4 -10 -6 -10 -22 0 -37 -15 -62 -22 -36 -3 10 -1 27 3 38 4 11 8 36
8 55 1 25 4 31 10 21 8 -12 12 -10 22 11 15 34 6 58 -23 58 -50 0 -52 -6 -45
-174 3 -86 2 -158 -3 -161 -10 -6 -17 101 -16 232 1 65 -3 102 -9 100 -6 -2
-10 -55 -10 -130 0 -69 -4 -129 -8 -133 -6 -6 -12 75 -9 116 3 26 -9 70 -19
70 -5 0 -10 -44 -10 -97 -2 -137 -16 -186 -19 -68 -2 50 -3 97 -2 105 0 12 -2
11 -13 -3 -12 -16 -13 -16 -19 5 -3 13 -5 37 -5 53 l1 30 7 -30 c7 -29 8 -29
15 15 4 25 10 52 12 61 3 9 -2 24 -11 32 -8 9 -15 22 -16 29 0 7 -4 4 -9 -7
-5 -11 -9 -82 -9 -157 -1 -80 -5 -139 -11 -143 -6 -4 -10 22 -10 70 0 48 -4
74 -10 70 -6 -4 -10 7 -10 27 0 18 -5 40 -10 48 -8 12 -10 10 -10 -8 0 -14 -5
-22 -12 -20 -8 3 -15 31 -19 69 -5 61 -6 62 -7 15 -2 -59 -14 -53 -23 12 l-6
47 -2 -42 c-1 -29 -5 -43 -14 -43 -11 0 -13 16 -9 73 2 43 0 82 -6 94 -6 11
-12 68 -13 127 -1 74 -6 111 -15 120 -11 11 -10 17 6 31 18 16 20 16 26 2 15
-40 139 -71 167 -43 9 9 23 16 32 16 27 0 213 100 245 131 15 16 33 29 38 29
15 0 22 42 10 57 -9 11 -7 18 5 30 14 14 14 18 1 38 -13 20 -13 23 2 29 11 4
13 10 6 19 -11 14 2 57 17 57 6 0 6 12 -1 31 -8 24 -8 41 1 66 7 19 14 51 17
71 8 68 14 88 25 71 7 -10 8 -6 3 13 -4 21 -2 29 10 34 11 4 15 13 10 26 -4
14 -2 18 5 14 6 -4 11 -1 11 6 0 8 5 19 11 25 22 22 53 -34 56 -101 2 -33 8
-63 14 -67 6 -4 13 -24 14 -45 4 -59 48 -208 67 -229 6 -6 11 -6 16 1 4 6 15
13 25 17 9 4 27 22 38 42 19 32 74 69 95 64 5 -1 37 3 72 11 54 11 67 18 87
48 19 28 23 44 20 86 -12 151 -14 409 -5 427 20 36 0 39 -36 6 -42 -37 -55
-61 -82 -142 -20 -61 -36 -178 -21 -154 13 22 20 -11 10 -46 -5 -16 -10 -22
-10 -12 -1 25 -21 21 -21 -5 0 -13 -4 -30 -9 -37 -13 -21 -19 9 -26 154 -4 66
-11 123 -16 126 -6 4 -3 32 7 75 21 82 48 147 58 137 4 -4 4 1 0 11 -6 15 -4
17 6 11 8 -5 11 -4 6 3 -13 21 71 108 122 127 46 17 59 18 67 5z m-88 -427
c-6 -108 -19 -219 -28 -228 -4 -3 -9 36 -13 87 -6 78 -5 94 8 104 12 8 16 29
16 73 0 36 4 61 11 61 7 0 9 -32 6 -97z m-58 -106 c0 -44 -3 -56 -9 -42 -12
29 -12 118 0 110 6 -3 10 -34 9 -68z m617 -607 c3 -30 7 -76 10 -101 4 -33 2
-48 -9 -57 -12 -10 -16 -9 -20 8 -3 11 -1 18 4 14 5 -3 9 16 8 43 0 32 -3 42
-8 29 -7 -18 -8 -18 -14 -2 -9 22 -9 94 0 137 6 32 6 32 16 8 5 -13 11 -49 13
-79z m204 46 c15 -65 6 -195 -16 -223 -14 -16 -15 -10 -10 60 6 75 5 78 -14
72 -19 -6 -20 -2 -18 52 1 35 3 45 5 25 6 -46 23 -29 23 24 0 60 14 56 30 -10z
m-273 -143 c-3 -10 -5 -4 -5 12 0 17 2 24 5 18 2 -7 2 -21 0 -30z m-20 -235
c-3 -7 -5 -2 -5 12 0 14 2 19 5 13 2 -7 2 -19 0 -25z m173 -1503 c0 -52 -4
-97 -10 -100 -6 -4 -10 7 -10 27 -1 18 -3 59 -6 91 -6 62 0 92 16 82 6 -3 10
-48 10 -100z m-210 72 c0 -7 -9 -34 -20 -62 l-21 -50 6 59 c3 32 8 63 11 68 7
11 24 0 24 -15z m58 -135 c-1 -81 -3 -119 -5 -84 -2 34 -9 62 -14 62 -7 0 -9
26 -7 70 2 39 -1 71 -7 73 -5 2 -3 10 5 19 8 9 18 14 23 11 4 -2 6 -70 5 -151z
m89 21 c-2 -27 -3 -5 -3 47 0 52 1 74 3 48 2 -27 2 -69 0 -95z m725 -37 c-2
-80 -7 -146 -11 -146 -5 0 -7 42 -5 93 2 63 0 81 -5 57 -8 -33 -8 -31 -10 20
-1 58 15 134 27 126 4 -2 6 -70 4 -150z m-481 122 c7 -24 7 -211 0 -233 -9
-28 -9 -26 -10 20 -1 28 -5 77 -11 109 -10 61 -5 106 11 106 5 0 9 -1 10 -2z
m100 -54 c-6 -22 -11 -52 -12 -69 -1 -29 -1 -30 -9 -5 -12 36 -11 75 0 106 17
43 34 16 21 -32z m-41 -65 c0 -112 -20 -92 -28 27 -5 82 -4 87 11 72 13 -13
17 -36 17 -99z m300 79 c0 -55 -12 -138 -20 -138 -8 0 -11 125 -4 153 9 29 24
19 24 -15z m-125 -18 c8 -16 15 -46 15 -66 l0 -38 -20 22 c-14 15 -20 35 -20
67 0 25 2 45 5 45 2 0 11 -13 20 -30z m-1114 -95 c15 10 11 -29 -6 -51 -13
-18 -14 -16 -16 26 -2 34 -3 38 -6 15 -2 -16 -10 -35 -18 -40 -7 -6 -16 -24
-18 -40 -3 -17 -3 -7 -1 20 10 118 17 150 33 161 14 11 16 6 19 -42 2 -31 7
-52 13 -49z m1311 73 c-9 -9 -12 -7 -12 12 0 19 3 21 12 12 9 -9 9 -15 0 -24z
m-1251 -120 c-8 -29 -9 -25 -10 38 -1 39 2 74 7 78 11 12 14 -78 3 -116z
m-155 19 c-5 -100 -16 -94 -16 9 0 59 3 84 10 74 5 -8 7 -45 6 -83z m811 36
c-3 -10 -5 -4 -5 12 0 17 2 24 5 18 2 -7 2 -21 0 -30z m-857 -76 c0 -12 -4
-28 -9 -35 -11 -18 -21 19 -14 48 7 25 23 16 23 -13z m630 -39 c0 -10 3 -9 9
1 7 11 13 9 30 -8 11 -11 34 -21 49 -21 16 0 46 -9 68 -19 28 -14 41 -16 46
-8 5 8 8 7 8 -4 0 -9 23 -28 54 -44 52 -27 93 -75 81 -95 -3 -6 1 -10 10 -10
11 0 15 -5 12 -14 -3 -8 -1 -17 6 -19 8 -3 6 -9 -6 -18 -17 -13 -16 -17 8 -76
14 -35 25 -78 25 -97 0 -19 5 -36 11 -38 8 -3 6 -19 -6 -53 -9 -28 -21 -88
-26 -135 -16 -160 -63 -286 -96 -259 -10 9 -17 4 -30 -20 -10 -17 -21 -31 -25
-31 -5 0 -8 -33 -8 -73 0 -49 -5 -80 -16 -95 -8 -12 -13 -22 -10 -22 2 0 11
-3 20 -6 12 -5 16 6 19 63 1 37 3 12 3 -57 0 -69 -1 -104 -3 -77 -2 26 -8 45
-13 42 -5 -3 -7 -12 -3 -20 3 -9 1 -21 -5 -28 -6 -6 -12 -25 -15 -42 -2 -17
-5 4 -6 45 -4 102 -18 147 -21 65 -2 -59 -3 -59 -9 -18 -9 54 -21 67 -21 23 0
-67 -15 -16 -22 73 -18 234 -43 355 -31 150 3 -60 2 -127 -2 -149 -8 -34 -10
-23 -20 81 -9 98 -13 116 -22 96 -8 -21 -11 -14 -17 51 -4 42 -4 94 0 117 4
28 3 41 -5 41 -7 0 -11 -33 -11 -101 0 -64 -4 -98 -10 -94 -6 4 -10 -7 -10
-26 0 -18 -2 -30 -5 -27 -6 6 -17 148 -16 208 1 29 -2 40 -8 32 -11 -18 -24
101 -26 238 -1 124 -14 354 -21 392 -8 39 3 66 34 83 34 18 52 19 52 3z m-643
-50 c-3 -8 -6 -5 -6 6 -1 11 2 17 5 13 3 -3 4 -12 1 -19z m-416 -91 c-6 -6
-11 -22 -11 -36 0 -13 -3 -22 -6 -19 -11 12 -5 130 8 146 11 13 13 8 16 -33 2
-26 -2 -53 -7 -58z m833 -13 c-4 -29 -1 -50 10 -70 l15 -29 -5 45 c-3 25 -1
59 4 75 7 25 10 15 15 -58 7 -89 2 -122 -14 -96 -6 9 -9 -2 -10 -31 -1 -60
-17 -24 -18 41 -1 25 -8 54 -16 65 -18 23 -19 54 -3 106 11 37 12 38 20 17 5
-12 6 -41 2 -65z m596 6 c0 -5 -4 -10 -10 -10 -5 0 -10 5 -10 10 0 6 5 10 10
10 6 0 10 -4 10 -10z m-640 -81 c0 -31 -4 -48 -10 -44 -5 3 -10 26 -10 51 0
24 5 44 10 44 6 0 10 -23 10 -51z m-1260 -94 c0 -102 -16 -113 -24 -17 -7 83
0 125 15 100 5 -7 9 -44 9 -83z m1213 -2 c-3 -54 -7 -100 -9 -102 -2 -2 -4 41
-4 97 0 60 4 102 10 102 6 0 7 -37 3 -97z m-1186 40 c-3 -10 -5 -4 -5 12 0 17
2 24 5 18 2 -7 2 -21 0 -30z m-237 5 c0 -16 -3 -19 -11 -11 -6 6 -8 16 -5 22
11 17 16 13 16 -11z m156 -70 c1 -40 0 -62 -3 -48 -5 24 -6 24 -19 -10 l-14
-35 5 34 c3 18 5 61 5 94 0 88 22 59 26 -35z m-126 -84 c0 -66 -4 -113 -9
-110 -15 10 -10 226 5 226 2 0 4 -52 4 -116z m-238 52 c3 -24 2 -61 -2 -82 -7
-35 -8 -36 -9 -9 -1 17 -4 54 -7 83 -4 32 -3 52 3 52 6 0 13 -20 15 -44z m169
-60 c-6 -12 -12 -34 -14 -51 -2 -16 -5 0 -6 38 0 39 4 76 12 87 11 19 12 18
15 -16 2 -21 -1 -47 -7 -58z m1026 52 c-3 -7 -5 -2 -5 12 0 14 2 19 5 13 2 -7
2 -19 0 -25z m660 -35 c-2 -16 -4 -5 -4 22 0 28 2 40 4 28 2 -13 2 -35 0 -50z
m-1648 20 c0 -16 -4 -37 -9 -48 -6 -15 -9 -8 -9 28 -1 26 4 47 9 47 6 0 10
-12 9 -27z m-230 -40 c-1 -38 -1 -38 -9 -9 -8 27 -6 46 6 46 2 0 4 -17 3 -37z
m1209 4 c-3 -29 -1 -33 14 -29 10 2 18 14 18 26 0 17 2 18 10 6 5 -8 9 -73 8
-145 l-1 -130 -12 120 c-7 66 -13 101 -13 78 -1 -23 -9 -48 -17 -57 -8 -8 -15
-23 -16 -33 -1 -13 -3 -11 -9 7 -10 30 -12 152 -4 174 11 29 26 17 22 -17z
m-1291 -19 c-3 -7 -5 -2 -5 12 0 14 2 19 5 13 2 -7 2 -19 0 -25z m238 -14 c3
-28 0 -46 -11 -60 -14 -17 -15 -18 -10 -1 3 10 6 39 6 64 0 55 8 53 15 -3z
m202 -6 c-3 -8 -6 -5 -6 6 -1 11 2 17 5 13 3 -3 4 -12 1 -19z m-460 -80 c-2
-18 -4 -6 -4 27 0 33 2 48 4 33 2 -15 2 -42 0 -60z m200 40 c-3 -7 -5 -2 -5
12 0 14 2 19 5 13 2 -7 2 -19 0 -25z m-20 -40 c-3 -7 -5 -2 -5 12 0 14 2 19 5
13 2 -7 2 -19 0 -25z m996 -33 c4 -8 2 -40 -3 -72 -6 -32 -10 -101 -11 -153
-1 -52 -5 -106 -9 -120 -9 -26 -11 289 -2 335 5 28 17 33 25 10z m80 -57 c7
-39 9 -184 3 -177 -4 4 -10 52 -23 162 -6 53 12 66 20 15z m-142 -146 c-6 -2
-11 -19 -11 -38 0 -19 -5 -34 -11 -34 -13 0 -8 38 12 85 10 26 13 27 17 10 2
-10 -1 -21 -7 -23z m-61 -134 c0 -56 -3 -99 -6 -95 -10 9 -24 159 -18 184 13
49 24 7 24 -89z m1410 -118 c0 -147 -4 -230 -10 -230 -5 0 -10 11 -10 25 0 14
-5 25 -11 25 -11 0 -8 91 6 142 4 15 4 36 0 45 -7 15 -9 13 -15 -12 -4 -16 -8
-55 -9 -85 -1 -41 -4 -51 -13 -42 -10 10 -12 77 -3 142 2 14 4 48 5 75 2 53 5
52 15 -7 11 -70 25 -39 25 57 0 57 4 95 10 95 6 0 10 -83 10 -230z m-1662 43
c1 9 7 17 13 17 16 0 7 -158 -10 -185 -11 -18 -12 -17 -7 13 3 18 1 32 -4 32
-6 0 -10 11 -10 25 0 41 -18 28 -33 -22 l-14 -48 -8 108 c-4 59 -5 111 -1 114
3 4 6 -11 6 -31 0 -52 23 -42 32 15 13 75 22 78 28 9 4 -36 7 -57 8 -47z m211
30 c-1 -32 -5 -87 -9 -123 l-7 -65 -3 60 c-3 53 -4 55 -7 18 -2 -24 -8 -43
-13 -43 -5 0 -10 -8 -13 -17 -2 -10 -7 4 -12 30 -9 59 0 138 18 152 7 6 16 18
20 28 14 36 27 16 26 -40z m1372 -69 c-6 -41 -11 -96 -11 -122 0 -42 -1 -44
-15 -26 -9 11 -14 42 -15 77 0 32 -5 68 -11 79 -8 16 -8 22 2 29 8 5 17 3 21
-4 4 -7 8 4 8 24 0 41 10 56 22 34 5 -8 5 -48 -1 -91z m-1234 54 c-3 -8 -6 -5
-6 6 -1 11 2 17 5 13 3 -3 4 -12 1 -19z m-430 -140 c-3 -7 -5 -2 -5 12 0 14 2
19 5 13 2 -7 2 -19 0 -25z"/>
<path d="M1730 3724 c0 -8 5 -12 10 -9 6 4 8 11 5 16 -9 14 -15 11 -15 -7z"/>
<path d="M2294 3278 c-25 -49 -26 -57 -19 -144 l7 -93 26 4 c15 1 35 3 45 4
14 1 17 11 16 64 -1 34 -3 53 -6 42 -11 -46 -23 -36 -23 19 0 45 3 57 14 53
10 -4 15 8 19 46 7 58 2 71 -19 43 -12 -17 -14 -18 -14 -3 0 32 -20 17 -46
-35z m36 -149 c7 -27 9 -53 6 -56 -3 -4 -6 3 -6 15 0 13 -6 22 -15 22 -10 0
-15 11 -15 35 0 51 16 43 30 -16z"/>
<path d="M2224 3246 c-27 -29 -34 -59 -32 -135 2 -45 6 -81 10 -81 7 0 28 89
28 120 0 10 5 29 11 42 13 29 0 72 -17 54z"/>
<path d="M2141 3184 c-12 -15 -21 -35 -21 -45 0 -10 -4 -20 -9 -23 -12 -8 -12
-134 0 -141 5 -4 9 1 9 9 0 9 8 16 19 16 10 0 21 6 23 13 6 18 10 197 5 197
-3 0 -15 -12 -26 -26z"/>
<path d="M2077 3113 c-10 -10 -8 -76 3 -93 7 -11 10 2 10 43 0 58 -1 62 -13
50z"/>
<path d="M2025 3080 c-32 -54 -56 -125 -49 -144 8 -21 13 -20 45 7 32 27 39
56 30 122 l-6 50 -20 -35z"/>
<path d="M1289 3008 c-3 -108 -1 -130 9 -140 9 -9 11 13 10 85 -1 53 -5 97
-10 97 -4 0 -8 -19 -9 -42z"/>
<path d="M1261 2954 c0 -11 3 -14 6 -6 3 7 2 16 -1 19 -3 4 -6 -2 -5 -13z"/>
<path d="M1625 2840 c-11 -18 -36 -123 -31 -134 3 -6 8 -1 11 12 4 12 14 22
21 22 8 0 14 3 15 8 0 4 2 26 5 49 5 39 -8 65 -21 43z"/>
<path d="M2173 2670 c-10 -11 -24 -20 -33 -20 -8 0 -23 -12 -33 -28 -9 -15
-28 -42 -42 -61 -24 -32 -25 -33 -26 -10 0 23 -1 23 -12 5 -7 -11 -20 -28 -30
-38 -10 -11 -21 -35 -24 -54 -6 -34 -5 -35 22 -30 32 6 45 21 45 53 0 35 18
36 22 1 4 -43 25 -47 36 -6 l9 33 11 -25 11 -25 1 30 c1 68 29 100 31 37 0
-15 4 -36 8 -47 6 -13 8 1 7 39 -1 42 3 60 13 64 11 4 12 -5 7 -42 -5 -30 -4
-46 3 -46 6 0 11 9 11 21 0 11 4 18 8 15 5 -3 7 -19 4 -37 -3 -23 -1 -30 9
-27 18 6 27 40 28 108 1 63 7 75 37 77 20 1 22 -5 30 -110 l8 -112 7 65 c4 36
7 93 8 128 l1 62 -80 0 c-68 0 -83 -3 -97 -20z m49 -104 c-8 -16 -11 -7 -10
44 l0 65 10 -44 c6 -29 6 -51 0 -65z"/>
<path d="M1662 2590 c0 -19 2 -27 5 -17 2 9 2 25 0 35 -3 9 -5 1 -5 -18z"/>
<path d="M2292 2523 c0 -72 -3 -95 -16 -108 -20 -20 -21 -35 -2 -35 7 0 19 -6
26 -14 29 -36 52 15 30 66 -6 13 -17 59 -24 103 l-15 80 1 -92z"/>
<path d="M2321 2093 c-10 -21 -14 -24 -21 -13 -7 12 -10 12 -16 -3 -3 -9 -12
-17 -19 -17 -10 0 -13 -23 -12 -95 1 -60 5 -94 12 -92 5 2 11 13 13 25 2 12 8
22 13 22 5 0 9 32 9 72 0 91 17 80 24 -16 7 -79 16 -101 16 -35 0 24 3 74 7
112 6 71 -4 88 -26 40z"/>
<path d="M2187 2030 c-16 -13 -33 -33 -37 -46 -6 -14 -18 -24 -29 -24 -10 0
-22 -7 -25 -16 -3 -8 -10 -13 -15 -10 -5 3 -11 -3 -14 -13 -3 -14 -11 -18 -26
-14 -26 7 -45 -37 -36 -83 l5 -32 37 19 c21 11 45 19 55 19 10 0 18 7 18 18 0
11 3 13 8 6 4 -7 15 -8 30 -3 17 6 22 16 22 44 0 19 5 35 10 35 6 0 10 -13 10
-29 0 -17 5 -33 10 -36 7 -4 8 12 4 48 -4 30 -2 62 3 73 6 10 7 30 4 42 l-6
24 -28 -22z"/>
<path d="M1620 1730 c-25 -11 -52 -22 -62 -26 -19 -7 -29 -37 -17 -55 6 -10
10 -7 18 11 5 14 10 19 10 13 1 -21 29 -15 36 7 4 12 11 17 18 13 28 -18 77
10 77 44 0 18 -27 15 -80 -7z"/>
<path d="M1478 1687 c-12 -10 -15 -21 -9 -47 l7 -34 17 24 c17 25 23 70 10 70
-5 0 -15 -6 -25 -13z"/>
<path d="M1380 1645 c-19 -19 -42 -37 -52 -41 -21 -6 -25 -44 -4 -44 8 0 16 5
18 11 2 5 12 12 23 14 11 2 21 4 23 5 1 2 8 3 14 4 7 0 14 10 16 21 2 11 8 24
13 30 13 14 11 35 -4 35 -7 0 -28 -16 -47 -35z"/>
<path d="M3265 1593 c-3 -21 -8 -50 -10 -65 -2 -15 0 -30 4 -33 5 -3 11 19 13
47 2 29 8 61 12 71 5 10 4 17 -2 17 -6 0 -14 -17 -17 -37z"/>
<path d="M2988 1568 c-2 -13 -1 -34 3 -48 5 -19 7 -14 8 23 1 50 -4 62 -11 25z"/>
<path d="M1894 1502 c-13 -8 -26 -362 -13 -362 5 0 21 18 35 40 14 22 35 42
45 45 16 5 19 16 19 65 0 32 -4 62 -10 65 -6 4 -10 -17 -10 -55 0 -83 -17 -68
-20 17 -1 38 -3 86 -4 107 0 23 4 41 12 43 8 3 12 -7 12 -31 0 -20 5 -36 10
-36 6 0 10 9 10 20 0 12 7 34 15 49 8 16 11 31 8 35 -9 8 -96 7 -109 -2z m27
-159 c-2 -77 -21 -95 -21 -21 0 57 8 93 18 84 3 -3 4 -32 3 -63z"/>
<path d="M1482 1115 c0 -16 2 -22 5 -12 2 9 2 23 0 30 -3 6 -5 -1 -5 -18z"/>
<path d="M1525 431 c-3 -5 -1 -12 5 -16 5 -3 10 1 10 9 0 18 -6 21 -15 7z"/>
<path d="M1526 363 c-9 -33 -11 -122 -2 -123 4 0 10 31 12 70 4 69 0 87 -10
53z"/>
<path d="M1313 310 c0 -30 2 -43 4 -27 2 15 2 39 0 55 -2 15 -4 2 -4 -28z"/>
<path d="M3032 3400 c0 -14 2 -19 5 -12 2 6 2 18 0 25 -3 6 -5 1 -5 -13z"/>
<path d="M2713 1107 c-5 -18 -6 -41 -2 -52 4 -11 8 -35 8 -54 1 -56 8 -32 15
57 8 85 -3 108 -21 49z"/>
<path d="M2750 953 c0 -25 3 -43 8 -39 10 10 10 86 0 86 -4 0 -8 -21 -8 -47z"/>
<path d="M2672 930 c0 -19 2 -27 5 -17 2 9 2 25 0 35 -3 9 -5 1 -5 -18z"/>
<path d="M2702 930 c0 -19 2 -27 5 -17 2 9 2 25 0 35 -3 9 -5 1 -5 -18z"/>
<path d="M2732 935 c0 -16 2 -22 5 -12 2 9 2 23 0 30 -3 6 -5 -1 -5 -18z"/>
<path d="M1442 270 c0 -19 2 -27 5 -17 2 9 2 25 0 35 -3 9 -5 1 -5 -18z"/>
<path d="M1632 340 c0 -14 2 -19 5 -12 2 6 2 18 0 25 -3 6 -5 1 -5 -13z"/>
<path d="M3001 284 c0 -11 3 -14 6 -6 3 7 2 16 -1 19 -3 4 -6 -2 -5 -13z"/>
</g>
</svg>
